<svg width="1080" height="1080" viewBox="0 0 1080 1080" fill="none" xmlns="http://www.w3.org/2000/svg">
<g clip-path="url(#clip0_228_16463)">
<rect x="320" y="1040" width="40" height="40" fill="black"/>
<rect x="320" y="1000" width="40" height="40" fill="black"/>
<rect x="320" y="960" width="40" height="40" fill="black"/>
<rect x="320" y="920" width="40" height="40" fill="black"/>
<rect x="320" y="880" width="40" height="40" fill="black"/>
<rect x="320" y="840" width="40" height="40" fill="black"/>
<rect x="320" y="800" width="40" height="40" fill="black"/>
<rect x="320" y="760" width="40" height="40" fill="black"/>
<rect x="320" y="720" width="40" height="40" fill="black"/>
<rect x="320" y="680" width="40" height="40" fill="black"/>
<rect x="320" y="640" width="40" height="40" fill="black"/>
<rect x="280" y="640" width="40" height="40" fill="black"/>
<rect x="280" y="600" width="40" height="40" fill="black"/>
<rect x="280" y="560" width="40" height="40" fill="black"/>
<rect x="320" y="520" width="40" height="40" fill="black"/>
<rect x="320" y="480" width="40" height="40" fill="black"/>
<rect x="320" y="440" width="40" height="40" fill="black"/>
<rect x="320" y="400" width="40" height="40" fill="black"/>
<rect x="320" y="360" width="40" height="40" fill="black"/>
<rect x="360" y="320" width="40" height="40" fill="black"/>
<rect x="400" y="280" width="40" height="40" fill="black"/>
<rect x="440" y="280" width="40" height="40" fill="black"/>
<rect x="480" y="280" width="40" height="40" fill="black"/>
<rect x="520" y="280" width="40" height="40" fill="black"/>
<rect x="560" y="280" width="40" height="40" fill="black"/>
<rect x="600" y="280" width="40" height="40" fill="black"/>
<rect x="480" y="1040" width="40" height="40" fill="black"/>
<rect x="480" y="1000" width="40" height="40" fill="black"/>
<rect x="480" y="960" width="40" height="40" fill="black"/>
<rect x="480" y="920" width="40" height="40" fill="black"/>
<rect x="520" y="920" width="40" height="40" fill="black"/>
<rect x="560" y="920" width="40" height="40" fill="black"/>
<rect x="600" y="920" width="40" height="40" fill="black"/>
<rect x="640" y="920" width="40" height="40" fill="black"/>
<rect x="680" y="880" width="40" height="40" fill="black"/>
<rect x="720" y="840" width="40" height="40" fill="black"/>
<rect x="720" y="800" width="40" height="40" fill="black"/>
<rect x="720" y="760" width="40" height="40" fill="black"/>
<rect x="720" y="720" width="40" height="40" fill="black"/>
<rect x="720" y="680" width="40" height="40" fill="black"/>
<rect x="720" y="640" width="40" height="40" fill="black"/>
<rect x="720" y="600" width="40" height="40" fill="black"/>
<rect x="720" y="560" width="40" height="40" fill="black"/>
<rect x="720" y="520" width="40" height="40" fill="black"/>
<rect x="720" y="480" width="40" height="40" fill="black"/>
<rect x="720" y="440" width="40" height="40" fill="black"/>
<rect x="720" y="400" width="40" height="40" fill="black"/>
<rect x="720" y="360" width="40" height="40" fill="black"/>
<rect x="680" y="320" width="40" height="40" fill="black"/>
<rect x="640" y="280" width="40" height="40" fill="black"/>
<rect x="360" y="1040" width="40" height="40" fill="#FFBDAE"/>
<rect x="360" y="1000" width="40" height="40" fill="#FFBDAE"/>
<rect x="360" y="960" width="40" height="40" fill="#FFBDAE"/>
<rect x="360" y="920" width="40" height="40" fill="#FFBDAE"/>
<rect x="360" y="880" width="40" height="40" fill="#FFBDAE"/>
<rect x="360" y="840" width="40" height="40" fill="#FFBDAE"/>
<rect x="360" y="800" width="40" height="40" fill="#FFBDAE"/>
<rect x="360" y="760" width="40" height="40" fill="#FFBDAE"/>
<rect x="360" y="720" width="40" height="40" fill="#FFBDAE"/>
<rect x="360" y="680" width="40" height="40" fill="#FFBDAE"/>
<rect x="360" y="640" width="40" height="40" fill="#FFBDAE"/>
<rect x="360" y="600" width="40" height="40" fill="#FFBDAE"/>
<rect x="320" y="600" width="40" height="40" fill="#FFBDAE"/>
<rect x="360" y="560" width="40" height="40" fill="#FFBDAE"/>
<rect x="320" y="560" width="40" height="40" fill="#FFBDAE"/>
<rect x="360" y="520" width="40" height="40" fill="#FFBDAE"/>
<rect x="360" y="480" width="40" height="40" fill="#FFBDAE"/>
<rect x="360" y="440" width="40" height="40" fill="#FFBDAE"/>
<rect x="360" y="400" width="40" height="40" fill="#FFBDAE"/>
<rect x="360" y="360" width="40" height="40" fill="#FFBDAE"/>
<rect x="400" y="1040" width="40" height="40" fill="#FFBDAE"/>
<rect x="400" y="1000" width="40" height="40" fill="#FFBDAE"/>
<rect x="400" y="960" width="40" height="40" fill="#FFBDAE"/>
<rect x="400" y="920" width="40" height="40" fill="#FFBDAE"/>
<rect x="400" y="880" width="40" height="40" fill="#FFBDAE"/>
<rect x="400" y="840" width="40" height="40" fill="#FFBDAE"/>
<rect x="400" y="800" width="40" height="40" fill="#FFBDAE"/>
<rect x="400" y="760" width="40" height="40" fill="#FFBDAE"/>
<rect x="400" y="720" width="40" height="40" fill="#FFBDAE"/>
<rect x="400" y="680" width="40" height="40" fill="#FFBDAE"/>
<rect x="400" y="640" width="40" height="40" fill="#FFBDAE"/>
<rect x="400" y="600" width="40" height="40" fill="#FFBDAE"/>
<rect x="400" y="560" width="40" height="40" fill="#FFBDAE"/>
<rect x="400" y="520" width="40" height="40" fill="#FFBDAE"/>
<rect x="400" y="480" width="40" height="40" fill="#FFBDAE"/>
<rect x="400" y="440" width="40" height="40" fill="#FFBDAE"/>
<rect x="400" y="400" width="40" height="40" fill="#FFBDAE"/>
<rect x="400" y="360" width="40" height="40" fill="#FFBDAE"/>
<rect x="400" y="320" width="40" height="40" fill="#FFBDAE"/>
<rect x="440" y="1040" width="40" height="40" fill="#FFBDAE"/>
<rect x="440" y="1000" width="40" height="40" fill="#FFBDAE"/>
<rect x="440" y="960" width="40" height="40" fill="#FFBDAE"/>
<rect x="440" y="920" width="40" height="40" fill="#FFBDAE"/>
<rect x="440" y="880" width="40" height="40" fill="#FFBDAE"/>
<rect x="440" y="840" width="40" height="40" fill="#FFBDAE"/>
<rect x="440" y="800" width="40" height="40" fill="#FFBDAE"/>
<rect x="440" y="760" width="40" height="40" fill="#FFBDAE"/>
<rect x="440" y="720" width="40" height="40" fill="#FFBDAE"/>
<rect x="440" y="680" width="40" height="40" fill="#FFBDAE"/>
<rect x="440" y="640" width="40" height="40" fill="#FFBDAE"/>
<rect x="440" y="600" width="40" height="40" fill="#FFBDAE"/>
<rect x="440" y="560" width="40" height="40" fill="#FFBDAE"/>
<rect x="440" y="520" width="40" height="40" fill="#FFBDAE"/>
<rect x="440" y="480" width="40" height="40" fill="#FFBDAE"/>
<rect x="440" y="440" width="40" height="40" fill="#FFBDAE"/>
<rect x="440" y="400" width="40" height="40" fill="#FFBDAE"/>
<rect x="440" y="360" width="40" height="40" fill="#FFBDAE"/>
<rect x="440" y="320" width="40" height="40" fill="#FFBDAE"/>
<rect x="480" y="880" width="40" height="40" fill="#FFBDAE"/>
<rect x="480" y="840" width="40" height="40" fill="#FFBDAE"/>
<rect x="480" y="800" width="40" height="40" fill="#FFBDAE"/>
<rect x="480" y="760" width="40" height="40" fill="#FFBDAE"/>
<rect x="480" y="720" width="40" height="40" fill="#FFBDAE"/>
<rect x="480" y="680" width="40" height="40" fill="#FFBDAE"/>
<rect x="480" y="640" width="40" height="40" fill="#FFBDAE"/>
<rect x="480" y="600" width="40" height="40" fill="#FFBDAE"/>
<rect x="480" y="560" width="40" height="40" fill="#FFBDAE"/>
<rect x="480" y="520" width="40" height="40" fill="#FFBDAE"/>
<rect x="480" y="480" width="40" height="40" fill="#FFBDAE"/>
<rect x="480" y="440" width="40" height="40" fill="#FFBDAE"/>
<rect x="480" y="400" width="40" height="40" fill="#FFBDAE"/>
<rect x="480" y="360" width="40" height="40" fill="#FFBDAE"/>
<rect x="480" y="320" width="40" height="40" fill="#FFBDAE"/>
<rect x="520" y="880" width="40" height="40" fill="#FFBDAE"/>
<rect x="520" y="840" width="40" height="40" fill="#FFBDAE"/>
<rect x="520" y="800" width="40" height="40" fill="#FFBDAE"/>
<rect x="520" y="760" width="40" height="40" fill="#FFBDAE"/>
<rect x="520" y="720" width="40" height="40" fill="#FFBDAE"/>
<rect x="520" y="680" width="40" height="40" fill="#FFBDAE"/>
<rect x="520" y="640" width="40" height="40" fill="#FFBDAE"/>
<rect x="520" y="600" width="40" height="40" fill="#FFBDAE"/>
<rect x="520" y="560" width="40" height="40" fill="#FFBDAE"/>
<rect x="520" y="520" width="40" height="40" fill="#FFBDAE"/>
<rect x="520" y="480" width="40" height="40" fill="#FFBDAE"/>
<rect x="520" y="440" width="40" height="40" fill="#FFBDAE"/>
<rect x="520" y="400" width="40" height="40" fill="#FFBDAE"/>
<rect x="520" y="360" width="40" height="40" fill="#FFBDAE"/>
<rect x="520" y="320" width="40" height="40" fill="#FFBDAE"/>
<rect x="560" y="880" width="40" height="40" fill="#FFBDAE"/>
<rect x="560" y="840" width="40" height="40" fill="#FFBDAE"/>
<rect x="560" y="800" width="40" height="40" fill="#FFBDAE"/>
<rect x="560" y="760" width="40" height="40" fill="#FFBDAE"/>
<rect x="560" y="720" width="40" height="40" fill="#FFBDAE"/>
<rect x="560" y="680" width="40" height="40" fill="#FFBDAE"/>
<rect x="560" y="640" width="40" height="40" fill="#FFBDAE"/>
<rect x="560" y="600" width="40" height="40" fill="#FFBDAE"/>
<rect x="560" y="560" width="40" height="40" fill="#FFBDAE"/>
<rect x="560" y="520" width="40" height="40" fill="#FFBDAE"/>
<rect x="560" y="480" width="40" height="40" fill="#FFBDAE"/>
<rect x="560" y="440" width="40" height="40" fill="#FFBDAE"/>
<rect x="560" y="400" width="40" height="40" fill="#FFBDAE"/>
<rect x="560" y="360" width="40" height="40" fill="#FFBDAE"/>
<rect x="560" y="320" width="40" height="40" fill="#FFBDAE"/>
<rect x="600" y="880" width="40" height="40" fill="#FFBDAE"/>
<rect x="600" y="840" width="40" height="40" fill="#FFBDAE"/>
<rect x="600" y="800" width="40" height="40" fill="#FFBDAE"/>
<rect x="600" y="760" width="40" height="40" fill="#FFBDAE"/>
<rect x="600" y="720" width="40" height="40" fill="#FFBDAE"/>
<rect x="600" y="680" width="40" height="40" fill="#FFBDAE"/>
<rect x="600" y="640" width="40" height="40" fill="#FFBDAE"/>
<rect x="600" y="600" width="40" height="40" fill="#FFBDAE"/>
<rect x="600" y="560" width="40" height="40" fill="#FFBDAE"/>
<rect x="600" y="520" width="40" height="40" fill="#FFBDAE"/>
<rect x="600" y="480" width="40" height="40" fill="#FFBDAE"/>
<rect x="600" y="440" width="40" height="40" fill="#FFBDAE"/>
<rect x="600" y="400" width="40" height="40" fill="#FFBDAE"/>
<rect x="600" y="360" width="40" height="40" fill="#FFBDAE"/>
<rect x="600" y="320" width="40" height="40" fill="#FFBDAE"/>
<rect x="640" y="880" width="40" height="40" fill="#FFBDAE"/>
<rect x="640" y="840" width="40" height="40" fill="#FFBDAE"/>
<rect x="640" y="800" width="40" height="40" fill="#FFBDAE"/>
<rect x="640" y="760" width="40" height="40" fill="#FFBDAE"/>
<rect x="640" y="720" width="40" height="40" fill="#FFBDAE"/>
<rect x="640" y="680" width="40" height="40" fill="#FFBDAE"/>
<rect x="640" y="640" width="40" height="40" fill="#FFBDAE"/>
<rect x="640" y="600" width="40" height="40" fill="#FFBDAE"/>
<rect x="640" y="560" width="40" height="40" fill="#FFBDAE"/>
<rect x="640" y="520" width="40" height="40" fill="#FFBDAE"/>
<rect x="640" y="480" width="40" height="40" fill="#FFBDAE"/>
<rect x="640" y="440" width="40" height="40" fill="#FFBDAE"/>
<rect x="640" y="400" width="40" height="40" fill="#FFBDAE"/>
<rect x="640" y="360" width="40" height="40" fill="#FFBDAE"/>
<rect x="640" y="320" width="40" height="40" fill="#FFBDAE"/>
<rect x="680" y="840" width="40" height="40" fill="#FFBDAE"/>
<rect x="680" y="800" width="40" height="40" fill="#FFBDAE"/>
<rect x="680" y="760" width="40" height="40" fill="#FFBDAE"/>
<rect x="680" y="720" width="40" height="40" fill="#FFBDAE"/>
<rect x="680" y="680" width="40" height="40" fill="#FFBDAE"/>
<rect x="680" y="640" width="40" height="40" fill="#FFBDAE"/>
<rect x="680" y="600" width="40" height="40" fill="#FFBDAE"/>
<rect x="680" y="560" width="40" height="40" fill="#FFBDAE"/>
<rect x="680" y="520" width="40" height="40" fill="#FFBDAE"/>
<rect x="680" y="480" width="40" height="40" fill="#FFBDAE"/>
<rect x="680" y="440" width="40" height="40" fill="#FFBDAE"/>
<rect x="680" y="400" width="40" height="40" fill="#FFBDAE"/>
<rect x="680" y="360" width="40" height="40" fill="#FFBDAE"/>
<rect x="440" y="520" width="40" height="40" fill="#703E21"/>
<rect x="480" y="520" width="40" height="40" fill="#703E21"/>
<rect x="640" y="520" width="40" height="40" fill="#703E21"/>
<rect x="680" y="520" width="40" height="40" fill="#703E21"/>
<rect x="440" y="560" width="40" height="40" fill="#FD90BE"/>
<rect opacity="0.1" x="480" y="560" width="40" height="40" fill="black"/>
<rect x="640" y="560" width="40" height="40" fill="#FD90BE"/>
<rect opacity="0.1" x="680" y="560" width="40" height="40" fill="black"/>
<rect x="360" y="520" width="40" height="40" fill="black"/>
<rect x="400" y="520" width="40" height="40" fill="black"/>
<rect x="440" y="520" width="40" height="40" fill="black"/>
<rect x="480" y="520" width="40" height="40" fill="black"/>
<rect x="520" y="520" width="40" height="40" fill="black"/>
<rect x="560" y="520" width="40" height="40" fill="black"/>
<rect x="600" y="520" width="40" height="40" fill="black"/>
<rect x="640" y="520" width="40" height="40" fill="black"/>
<rect x="680" y="520" width="40" height="40" fill="black"/>
<rect x="720" y="520" width="40" height="40" fill="black"/>
<rect x="760" y="520" width="40" height="40" fill="black"/>
<rect x="400" y="560" width="40" height="40" fill="black"/>
<rect x="440" y="560" width="40" height="40" fill="black"/>
<rect x="480" y="560" width="40" height="40" fill="black"/>
<rect x="520" y="560" width="40" height="40" fill="black"/>
<rect x="640" y="560" width="40" height="40" fill="black"/>
<rect x="680" y="560" width="40" height="40" fill="black"/>
<rect x="720" y="560" width="40" height="40" fill="black"/>
<rect x="760" y="560" width="40" height="40" fill="black"/>
<rect x="440" y="600" width="40" height="40" fill="black"/>
<rect x="480" y="600" width="40" height="40" fill="black"/>
<rect x="680" y="600" width="40" height="40" fill="black"/>
<rect x="720" y="600" width="40" height="40" fill="black"/>
<rect x="480" y="760" width="40" height="40" fill="#A56D33"/>
<rect x="520" y="760" width="40" height="40" fill="#A56D33"/>
<rect x="560" y="760" width="40" height="40" fill="#A56D33"/>
<rect x="600" y="760" width="40" height="40" fill="#A56D33"/>
<rect x="640" y="760" width="40" height="40" fill="#A56D33"/>
<rect x="400" y="240" width="40" height="40" fill="black"/>
<rect x="440" y="240" width="40" height="40" fill="black"/>
<rect x="480" y="240" width="40" height="40" fill="black"/>
<rect x="520" y="240" width="40" height="40" fill="black"/>
<rect x="560" y="240" width="40" height="40" fill="black"/>
<rect x="600" y="240" width="40" height="40" fill="black"/>
<rect x="680" y="240" width="40" height="40" fill="black"/>
<rect x="360" y="280" width="40" height="40" fill="black"/>
<rect x="400" y="280" width="40" height="40" fill="black"/>
<rect x="440" y="280" width="40" height="40" fill="black"/>
<rect x="480" y="280" width="40" height="40" fill="black"/>
<rect x="520" y="280" width="40" height="40" fill="black"/>
<rect x="560" y="280" width="40" height="40" fill="black"/>
<rect x="600" y="280" width="40" height="40" fill="black"/>
<rect x="640" y="280" width="40" height="40" fill="black"/>
<rect x="680" y="280" width="40" height="40" fill="black"/>
<rect x="320" y="320" width="40" height="40" fill="black"/>
<rect x="360" y="320" width="40" height="40" fill="black"/>
<rect x="400" y="320" width="40" height="40" fill="black"/>
<rect x="440" y="320" width="40" height="40" fill="black"/>
<rect x="480" y="320" width="40" height="40" fill="black"/>
<rect x="520" y="320" width="40" height="40" fill="black"/>
<rect x="560" y="320" width="40" height="40" fill="black"/>
<rect x="600" y="320" width="40" height="40" fill="black"/>
<rect x="640" y="320" width="40" height="40" fill="black"/>
<rect x="680" y="320" width="40" height="40" fill="black"/>
<rect x="720" y="320" width="40" height="40" fill="black"/>
<rect x="760" y="320" width="40" height="40" fill="black"/>
<rect x="280" y="360" width="40" height="40" fill="black"/>
<rect x="320" y="360" width="40" height="40" fill="black"/>
<rect x="360" y="360" width="40" height="40" fill="black"/>
<rect x="400" y="360" width="40" height="40" fill="black"/>
<rect x="440" y="360" width="40" height="40" fill="black"/>
<rect x="480" y="360" width="40" height="40" fill="black"/>
<rect x="520" y="360" width="40" height="40" fill="black"/>
<rect x="560" y="360" width="40" height="40" fill="black"/>
<rect x="600" y="360" width="40" height="40" fill="black"/>
<rect x="640" y="360" width="40" height="40" fill="black"/>
<rect x="680" y="360" width="40" height="40" fill="black"/>
<rect x="720" y="360" width="40" height="40" fill="black"/>
<rect x="320" y="400" width="40" height="40" fill="black"/>
<rect x="360" y="400" width="40" height="40" fill="black"/>
<rect x="400" y="400" width="40" height="40" fill="black"/>
<rect x="440" y="400" width="40" height="40" fill="black"/>
<rect x="480" y="400" width="40" height="40" fill="black"/>
<rect x="520" y="400" width="40" height="40" fill="black"/>
<rect x="560" y="400" width="40" height="40" fill="black"/>
<rect x="640" y="400" width="40" height="40" fill="black"/>
<rect x="680" y="400" width="40" height="40" fill="black"/>
<rect x="720" y="400" width="40" height="40" fill="black"/>
<rect x="280" y="440" width="40" height="40" fill="black"/>
<rect x="320" y="440" width="40" height="40" fill="black"/>
<rect x="360" y="440" width="40" height="40" fill="black"/>
<rect x="440" y="440" width="40" height="40" fill="black"/>
<rect x="560" y="440" width="40" height="40" fill="black"/>
<rect x="680" y="440" width="40" height="40" fill="black"/>
<rect x="720" y="440" width="40" height="40" fill="black"/>
<rect x="760" y="440" width="40" height="40" fill="black"/>
<rect x="360" y="480" width="40" height="40" fill="black"/>
<rect x="400" y="480" width="40" height="40" fill="black"/>
<rect x="560" y="480" width="40" height="40" fill="black"/>
<rect x="720" y="480" width="40" height="40" fill="black"/>
<rect x="360" y="520" width="40" height="40" fill="black"/>
<rect x="720" y="520" width="40" height="40" fill="black"/>
<rect x="320" y="560" width="40" height="40" fill="black"/>
<rect x="320" y="600" width="40" height="40" fill="black"/>
<rect x="280" y="640" width="40" height="40" fill="black"/>
<rect x="320" y="640" width="40" height="40" fill="#FFBDAE"/>
<rect x="320" y="680" width="40" height="40" fill="black"/>
<rect opacity="0.35" x="840" y="560" width="40" height="40" fill="white"/>
<rect opacity="0.35" x="840" y="600" width="40" height="40" fill="white"/>
<rect opacity="0.35" x="840" y="640" width="40" height="40" fill="white"/>
<rect opacity="0.35" x="840" y="680" width="40" height="40" fill="white"/>
<rect x="640" y="760" width="40" height="40" fill="black"/>
<rect x="680" y="760" width="40" height="40" fill="black"/>
<rect x="720" y="760" width="40" height="40" fill="black"/>
<rect x="760" y="760" width="40" height="40" fill="black"/>
<rect x="800" y="760" width="40" height="40" fill="black"/>
<rect x="840" y="760" width="40" height="40" fill="black"/>
<rect x="520" y="800" width="40" height="40" fill="#E4571C"/>
<rect x="560" y="800" width="40" height="40" fill="#E4571C"/>
<rect x="600" y="800" width="40" height="40" fill="#E4571C"/>
<rect x="640" y="800" width="40" height="40" fill="#C6C6C6"/>
<rect x="680" y="800" width="40" height="40" fill="#C6C6C6"/>
<rect x="720" y="800" width="40" height="40" fill="#C6C6C6"/>
<rect x="760" y="800" width="40" height="40" fill="#C6C6C6"/>
<rect x="800" y="800" width="40" height="40" fill="#C6C6C6"/>
<rect x="840" y="800" width="40" height="40" fill="#E05C30"/>
<rect x="880" y="800" width="40" height="40" fill="black"/>
<rect x="640" y="840" width="40" height="40" fill="black"/>
<rect x="680" y="840" width="40" height="40" fill="black"/>
<rect x="720" y="840" width="40" height="40" fill="black"/>
<rect x="760" y="840" width="40" height="40" fill="black"/>
<rect x="800" y="840" width="40" height="40" fill="black"/>
<rect x="840" y="840" width="40" height="40" fill="black"/>
<rect x="560" y="680" width="40" height="40" fill="#703E21"/>
<rect x="600" y="680" width="40" height="40" fill="#703E21"/>
<rect x="280" y="640" width="40" height="40" fill="#FEC73C"/>
</g>
<defs>
<clipPath id="clip0_228_16463">
<rect width="1080" height="1080" fill="white"/>
</clipPath>
</defs>
</svg>
